<svg id="Layer_1" height="512" viewBox="0 0 512 512" width="512" xmlns="http://www.w3.org/2000/svg"><g fill="rgb(0,0,0)"><path d="m210.432 436.424c-4.917 0-9.018-1.664-12.186-4.945-8.168-8.459-10.789-27.764-9.349-68.853.913-26.048 4.176-54.963 7.055-80.474 2.42-21.45 4.511-39.974 4.511-50.985 0-8.435-5.573-13.851-12.628-20.708-11.152-10.839-25.032-24.329-25.032-56.109 0-6.982.818-14.233 2.431-21.552.416-1.887 2.283-3.082 4.171-2.665 1.888.416 3.081 2.284 2.665 4.171-1.504 6.825-2.267 13.569-2.267 20.045 0 28.822 12.171 40.652 22.911 51.089 7.585 7.372 14.75 14.335 14.75 25.728 0 11.405-2.111 30.11-4.555 51.77-2.865 25.385-6.111 54.157-7.015 79.934-1.313 37.434.966 57.094 7.388 63.745 1.849 1.916 4.121 2.808 7.15 2.808 3.028 0 5.3-.892 7.149-2.807 6.422-6.651 8.701-26.311 7.388-63.746-.903-25.777-4.15-54.549-7.015-79.934-2.444-21.659-4.555-40.365-4.555-51.77 0-11.393 7.165-18.356 14.75-25.728 10.739-10.437 22.911-22.267 22.911-51.089 0-33.806-21.264-70.926-40.628-70.926-10.408 0-22.125 10.854-30.581 28.328-.842 1.741-2.935 2.468-4.675 1.626s-2.468-2.935-1.626-4.675c9.78-20.212 23.568-32.279 36.881-32.279 25.65 0 47.628 42.848 47.628 77.926 0 31.78-13.879 45.27-25.032 56.109-7.056 6.857-12.628 12.273-12.628 20.708 0 11.011 2.09 29.535 4.511 50.985 2.878 25.511 6.141 54.426 7.055 80.474 1.44 41.089-1.181 60.394-9.349 68.853-3.167 3.283-7.266 4.946-12.184 4.946z"/><path d="m309.723 436.077c-4.917 0-9.016-1.663-12.184-4.944-8.165-8.456-10.787-27.76-9.351-68.849.067-1.931 1.696-3.447 3.62-3.375 1.932.068 3.443 1.688 3.376 3.62-1.327 37.94.884 57.003 7.391 63.742 1.849 1.915 4.12 2.806 7.147 2.806 3.029 0 5.302-.893 7.152-2.809 6.426-6.656 8.704-26.313 7.386-63.738-.901-25.78-4.147-54.558-7.011-79.947-2.441-21.653-4.551-40.354-4.551-51.753 0-11.162 6.01-18.607 12.372-26.49 8.763-10.856 18.694-23.162 16.917-49.668-1.045-15.569-3.425-33.071-8.491-62.426-.552-3.222-1.169-5.361-1.814-6.822v78.951c0 5.32-4.329 9.649-9.649 9.649s-9.649-4.329-9.649-9.649v-81.797c-1.761-.003-3.548-.003-5.311 0v81.796c0 5.32-4.328 9.649-9.648 9.649s-9.649-4.329-9.649-9.649v-78.959c-.647 1.462-1.268 3.603-1.827 6.832-5.059 29.38-7.436 46.883-8.479 62.424-1.777 26.507 8.154 38.812 16.917 49.668 6.362 7.883 12.372 15.328 12.372 26.49 0 11.411-2.112 30.134-4.559 51.815-1.72 15.233-3.667 32.499-5.093 49.3-.163 1.926-1.868 3.363-3.783 3.191-1.926-.163-3.354-1.857-3.191-3.783 1.434-16.897 3.387-34.214 5.111-49.493 2.423-21.471 4.515-40.014 4.515-51.03 0-8.689-4.774-14.604-10.818-22.093-9.096-11.269-20.416-25.294-18.455-54.534 1.061-15.801 3.462-33.506 8.565-63.146 1.007-5.813 2.602-11.602 7.412-14.607.948-.613 1.707-.634 4.716-.717.952-.029 1.859.331 2.537.99s1.06 1.564 1.06 2.509v85.144c0 1.46 1.188 2.649 2.649 2.649 1.46 0 2.648-1.188 2.648-2.649v-85.29c0-1.929 1.561-3.494 3.489-3.5 4.014-.012 8.33-.012 12.332 0 1.929.006 3.489 1.571 3.489 3.5v85.289c0 1.46 1.188 2.649 2.649 2.649s2.649-1.188 2.649-2.649v-85.144c0-.945.382-1.85 1.06-2.509s1.596-1.022 2.537-.99c2.994.083 3.758.104 4.704.718 4.828 3.008 6.416 8.797 7.412 14.609 5.11 29.609 7.515 47.313 8.577 63.144 1.961 29.24-9.359 43.265-18.455 54.534-6.044 7.489-10.818 13.404-10.818 22.093 0 11.006 2.089 29.525 4.507 50.969 2.878 25.516 6.139 54.436 7.051 80.486 1.446 41.079-1.174 60.381-9.346 68.846-3.168 3.282-7.268 4.947-12.187 4.947z"/><path d="m217.926 399.036c-.042 0-.085-.001-.128-.004-1.102-.07-1.939-1.02-1.87-2.123.01-.156.99-15.832.96-31.561-.002-1.104.892-2.002 1.996-2.004h.004c1.103 0 1.998.893 2 1.996.03 15.863-.958 31.664-.968 31.821-.066 1.061-.947 1.875-1.994 1.875z"/><path d="m218.765 358.955c-1.078 0-1.967-.857-1.998-1.942-.112-3.841-.302-7.285-.565-10.235-.098-1.1.714-2.071 1.815-2.169 1.096-.102 2.071.714 2.169 1.815.27 3.029.464 6.553.579 10.474.032 1.104-.836 2.025-1.941 2.057-.02-.001-.04 0-.059 0z"/><path d="m315.308 399.036c-.043 0-.085-.001-.128-.004-1.103-.07-1.939-1.02-1.87-2.123.01-.156.991-15.832.961-31.561-.002-1.104.892-2.002 1.996-2.004h.004c1.103 0 1.998.893 2 1.996.03 15.863-.959 31.664-.969 31.821-.068 1.061-.948 1.875-1.994 1.875z"/><path d="m316.146 358.955c-1.078 0-1.967-.857-1.998-1.942-.112-3.844-.303-7.287-.565-10.235-.098-1.1.714-2.072 1.814-2.17 1.105-.102 2.071.714 2.17 1.814.27 3.027.465 6.551.579 10.474.032 1.104-.837 2.025-1.94 2.057-.02.001-.04.002-.06.002z"/></g></svg>