<svg aria-hidden="true" style="position: absolute; width: 0; height: 0; overflow: hidden;" version="1.1" xmlns="http://www.w3.org/2000/svg" xmlns:xlink="http://www.w3.org/1999/xlink">
<defs>
<symbol id="icon-timer" viewBox="0 0 24 24">
<path d="M12 20.016q2.906 0 4.945-2.063t2.039-4.969-2.039-4.945-4.945-2.039-4.945 2.039-2.039 4.945 2.039 4.969 4.945 2.063zM19.031 7.406q0.797 1.031 1.383 2.648t0.586 2.93q0 3.703-2.625 6.352t-6.375 2.648-6.375-2.648-2.625-6.352 2.625-6.352 6.375-2.648q1.266 0 2.93 0.609t2.695 1.406l1.406-1.453q0.75 0.609 1.406 1.406zM11.016 14.016v-6h1.969v6h-1.969zM15 0.984v2.016h-6v-2.016h6z"></path>
</symbol>
<symbol id="icon-face" viewBox="0 0 24 24">
<path d="M12 20.016q3.281 0 5.648-2.367t2.367-5.648q0-1.031-0.328-2.25-1.031 0.234-2.297 0.234-2.156 0-4.523-1.242t-3.586-2.977q-1.547 3.75-5.25 5.391-0.047 0.281-0.047 0.844 0 3.281 2.367 5.648t5.648 2.367zM12 2.016q4.125 0 7.055 2.93t2.93 7.055-2.93 7.055-7.055 2.93-7.055-2.93-2.93-7.055 2.93-7.055 7.055-2.93zM15 11.766q0.516 0 0.891 0.352t0.375 0.867-0.375 0.891-0.891 0.375-0.891-0.375-0.375-0.891 0.375-0.867 0.891-0.352zM9 11.766q0.516 0 0.891 0.352t0.375 0.867-0.375 0.891-0.891 0.375-0.891-0.375-0.375-0.891 0.375-0.867 0.891-0.352z"></path>
</symbol>
<symbol id="icon-search" viewBox="0 0 24 24">
<path d="M9.516 14.016q1.875 0 3.188-1.313t1.313-3.188-1.313-3.188-3.188-1.313-3.188 1.313-1.313 3.188 1.313 3.188 3.188 1.313zM15.516 14.016l4.969 4.969-1.5 1.5-4.969-4.969v-0.797l-0.281-0.281q-1.781 1.547-4.219 1.547-2.719 0-4.617-1.875t-1.898-4.594 1.898-4.617 4.617-1.898 4.594 1.898 1.875 4.617q0 0.984-0.469 2.227t-1.078 1.992l0.281 0.281h0.797z"></path>
</symbol>
<symbol id="icon-copyright" viewBox="0 0 24 24">
<path d="M12 20.016q3.281 0 5.648-2.367t2.367-5.648-2.367-5.648-5.648-2.367-5.648 2.367-2.367 5.648 2.367 5.648 5.648 2.367zM12 2.016q4.125 0 7.055 2.93t2.93 7.055-2.93 7.055-7.055 2.93-7.055-2.93-2.93-7.055 2.93-7.055 7.055-2.93zM11.859 9.141q-1.875 0-1.875 2.719v0.281q0 2.719 1.875 2.719 0.703 0 1.172-0.398t0.469-1.008h1.781q0 1.172-1.031 2.063-0.984 0.844-2.391 0.844-1.875 0-2.859-1.125t-0.984-3.094v-0.281q0-1.922 0.938-3 1.125-1.266 2.906-1.266 1.547 0 2.438 0.891 0.984 0.984 0.984 2.297h-1.781q0-0.328-0.141-0.609-0.234-0.469-0.328-0.563-0.469-0.469-1.172-0.469z"></path>
</symbol>
<symbol id="icon-chevron-thin-left" viewBox="0 0 20 20">
<path d="M13.891 17.418c0.268 0.272 0.268 0.709 0 0.979s-0.701 0.271-0.969 0l-7.83-7.908c-0.268-0.27-0.268-0.707 0-0.979l7.83-7.908c0.268-0.27 0.701-0.27 0.969 0s0.268 0.709 0 0.979l-7.141 7.419 7.141 7.418z"></path>
</symbol>
<symbol id="icon-bowl" viewBox="0 0 20 20">
<path d="M16.949 7.472c-2.176 2.902-4.095 3.002-7.046 3.152h-0.101c-3.591-0.002-6.138-1.336-6.138-1.832-0.002-0.471 2.298-1.697 5.605-1.819l0.59-1.473c-0.019 0-0.037-0.002-0.057-0.002-4.908 0-7.791 1.562-7.791 3.051v2c0 0.918 0.582 8.949 7.582 8.949s8-8.031 8-8.949v-2c0-0.391-0.201-0.787-0.584-1.158l-0.060 0.081zM17.589 2.702c-0.441-0.33-1.069-0.242-1.399 0.201l-3.608 4.809 2.336-5.838c0.206-0.512-0.044-1.094-0.557-1.301-0.508-0.205-1.096 0.043-1.3 0.559l-3.259 8.142c2.882-0.147 4.277-0.227 6.067-2.611 1.789-2.387 1.919-2.561 1.919-2.561 0.332-0.441 0.243-1.068-0.199-1.4z"></path>
</symbol>
</defs>
</svg>
